<mxfile host="65bd71144e">
    <diagram id="0kl2FxtpxsIVNDlHt7WS" name="Page-1">
        <mxGraphModel dx="1740" dy="827" grid="1" gridSize="10" guides="1" tooltips="1" connect="1" arrows="1" fold="1" page="1" pageScale="1" pageWidth="3300" pageHeight="4681" math="0" shadow="0">
            <root>
                <mxCell id="0"/>
                <mxCell id="1" parent="0"/>
                <mxCell id="45" value="&lt;h1&gt;&lt;br&gt;&lt;/h1&gt;" style="text;html=1;strokeColor=none;fillColor=none;spacing=5;spacingTop=-20;whiteSpace=wrap;overflow=hidden;rounded=0;" parent="1" vertex="1">
                    <mxGeometry x="50" y="40" width="190" height="120" as="geometry"/>
                </mxCell>
                <mxCell id="46" value="&lt;h1&gt;First Step&lt;/h1&gt;&lt;div&gt;1) We need to validate the input. If input is not correct return &quot;Error&quot; in standard error, else go to step 2&lt;/div&gt;&lt;div&gt;&lt;br&gt;&lt;/div&gt;&lt;div&gt;2) Parsing the input (converting string to int, spliting, handling + sign)&lt;/div&gt;&lt;div&gt;&lt;br&gt;&lt;/div&gt;&lt;div&gt;2) We need to choose a Data Structure such as arrays or linked lists to impement an Abstract Data Type stack which gives the access only to the value on the top of the stack. So, if we want to add (push()) or remove (pop()) a value from stack, we have to do it starting from the topest value.&amp;nbsp;&lt;/div&gt;&lt;p&gt;3) pop(), push(), and the instruction functions, such as sa(), sb(), ss(), and others must be implimented.&lt;/p&gt;" style="text;html=1;strokeColor=none;fillColor=none;spacing=5;spacingTop=-20;whiteSpace=wrap;overflow=hidden;rounded=0;" parent="1" vertex="1">
                    <mxGeometry x="30" y="30" width="930" height="280" as="geometry"/>
                </mxCell>
                <mxCell id="64" value="argv (an array of strings)" style="text;html=1;strokeColor=none;fillColor=none;align=center;verticalAlign=middle;whiteSpace=wrap;rounded=0;" parent="1" vertex="1">
                    <mxGeometry x="160" y="456.25" width="95" height="42.5" as="geometry"/>
                </mxCell>
                <mxCell id="66" value="" style="endArrow=classic;html=1;" parent="1" edge="1">
                    <mxGeometry width="50" height="50" relative="1" as="geometry">
                        <mxPoint x="260" y="477.5" as="sourcePoint"/>
                        <mxPoint x="340" y="477.5" as="targetPoint"/>
                    </mxGeometry>
                </mxCell>
                <mxCell id="67" value="loop, if &lt;br&gt;argv [ i ] includes space" style="rhombus;whiteSpace=wrap;html=1;" parent="1" vertex="1">
                    <mxGeometry x="338.5" y="422.5" width="110" height="110" as="geometry"/>
                </mxCell>
                <mxCell id="68" value="" style="endArrow=classic;html=1;entryX=0;entryY=0.5;entryDx=0;entryDy=0;exitX=1;exitY=0.5;exitDx=0;exitDy=0;" parent="1" source="67" target="77" edge="1">
                    <mxGeometry width="50" height="50" relative="1" as="geometry">
                        <mxPoint x="450" y="477.5" as="sourcePoint"/>
                        <mxPoint x="520" y="477.5" as="targetPoint"/>
                    </mxGeometry>
                </mxCell>
                <mxCell id="69" value="" style="endArrow=classic;html=1;exitX=0.5;exitY=1;exitDx=0;exitDy=0;entryX=0.5;entryY=0;entryDx=0;entryDy=0;" parent="1" source="67" target="71" edge="1">
                    <mxGeometry width="50" height="50" relative="1" as="geometry">
                        <mxPoint x="393" y="537.5" as="sourcePoint"/>
                        <mxPoint x="393" y="607.5" as="targetPoint"/>
                        <Array as="points">
                            <mxPoint x="393" y="557.5"/>
                        </Array>
                    </mxGeometry>
                </mxCell>
                <mxCell id="70" value="yes" style="text;html=1;strokeColor=none;fillColor=none;align=center;verticalAlign=middle;whiteSpace=wrap;rounded=0;" parent="1" vertex="1">
                    <mxGeometry x="385" y="567.5" width="60" height="30" as="geometry"/>
                </mxCell>
                <mxCell id="104" style="edgeStyle=none;html=1;" parent="1" source="71" edge="1">
                    <mxGeometry relative="1" as="geometry">
                        <mxPoint x="530" y="477.5" as="targetPoint"/>
                        <Array as="points">
                            <mxPoint x="530" y="657.5"/>
                        </Array>
                    </mxGeometry>
                </mxCell>
                <mxCell id="71" value="split" style="rounded=0;whiteSpace=wrap;html=1;" parent="1" vertex="1">
                    <mxGeometry x="333.5" y="627.5" width="120" height="60" as="geometry"/>
                </mxCell>
                <mxCell id="72" value="no" style="text;html=1;strokeColor=none;fillColor=none;align=center;verticalAlign=middle;whiteSpace=wrap;rounded=0;" parent="1" vertex="1">
                    <mxGeometry x="453.5" y="437.5" width="60" height="30" as="geometry"/>
                </mxCell>
                <mxCell id="124" style="edgeStyle=none;html=1;exitX=0.5;exitY=1;exitDx=0;exitDy=0;" parent="1" source="77" edge="1">
                    <mxGeometry relative="1" as="geometry">
                        <mxPoint x="695" y="627.5" as="targetPoint"/>
                    </mxGeometry>
                </mxCell>
                <mxCell id="77" value="loop over &lt;br&gt;argv [ i ] or split [ i ] &lt;br&gt;to see if&amp;nbsp;&lt;br&gt;&amp;nbsp;is_digit() is 0 for a&lt;br&gt;&amp;nbsp;character" style="rhombus;whiteSpace=wrap;html=1;" parent="1" vertex="1">
                    <mxGeometry x="614.5" y="400" width="160" height="155" as="geometry"/>
                </mxCell>
                <mxCell id="78" value="" style="endArrow=classic;html=1;exitX=1;exitY=0.5;exitDx=0;exitDy=0;" parent="1" source="77" edge="1">
                    <mxGeometry width="50" height="50" relative="1" as="geometry">
                        <mxPoint x="700" y="477.5" as="sourcePoint"/>
                        <mxPoint x="860" y="477.5" as="targetPoint"/>
                    </mxGeometry>
                </mxCell>
                <mxCell id="84" value="&lt;h1&gt;Validate() Function&lt;/h1&gt;" style="text;html=1;strokeColor=none;fillColor=none;spacing=5;spacingTop=-20;whiteSpace=wrap;overflow=hidden;rounded=0;align=center;" parent="1" vertex="1">
                    <mxGeometry x="30" y="445" width="115" height="70" as="geometry"/>
                </mxCell>
                <mxCell id="136" style="edgeStyle=none;html=1;exitX=1;exitY=0.5;exitDx=0;exitDy=0;entryX=0;entryY=0.5;entryDx=0;entryDy=0;" parent="1" source="102" target="135" edge="1">
                    <mxGeometry relative="1" as="geometry"/>
                </mxCell>
                <mxCell id="102" value="go to stack a (argv [1] goes to top, last &lt;br&gt;argv [ i ] goes to bottom)" style="rounded=0;whiteSpace=wrap;html=1;" parent="1" vertex="1">
                    <mxGeometry x="1220" y="447.5" width="120" height="60" as="geometry"/>
                </mxCell>
                <mxCell id="106" value="split [ i ]" style="text;html=1;strokeColor=none;fillColor=none;align=center;verticalAlign=middle;whiteSpace=wrap;rounded=0;" parent="1" vertex="1">
                    <mxGeometry x="468.5" y="567.5" width="60" height="30" as="geometry"/>
                </mxCell>
                <mxCell id="109" value="" style="edgeStyle=none;html=1;entryX=0.5;entryY=0;entryDx=0;entryDy=0;" parent="1" source="107" target="108" edge="1">
                    <mxGeometry relative="1" as="geometry">
                        <mxPoint x="915.5" y="587.5" as="targetPoint"/>
                    </mxGeometry>
                </mxCell>
                <mxCell id="115" style="edgeStyle=none;html=1;" parent="1" source="107" edge="1">
                    <mxGeometry relative="1" as="geometry">
                        <mxPoint x="1060" y="477.5" as="targetPoint"/>
                    </mxGeometry>
                </mxCell>
                <mxCell id="107" value="&amp;gt; max_int&lt;br&gt;or&lt;br&gt;&amp;lt; min_int" style="rhombus;whiteSpace=wrap;html=1;" parent="1" vertex="1">
                    <mxGeometry x="860" y="427.5" width="100" height="100" as="geometry"/>
                </mxCell>
                <mxCell id="108" value="&quot;Error&quot;&lt;br&gt;exit()" style="shape=parallelogram;perimeter=parallelogramPerimeter;whiteSpace=wrap;html=1;fixedSize=1;" parent="1" vertex="1">
                    <mxGeometry x="850" y="627.5" width="120" height="60" as="geometry"/>
                </mxCell>
                <mxCell id="111" value="yes" style="text;html=1;strokeColor=none;fillColor=none;align=center;verticalAlign=middle;whiteSpace=wrap;rounded=0;" parent="1" vertex="1">
                    <mxGeometry x="910" y="567.5" width="60" height="30" as="geometry"/>
                </mxCell>
                <mxCell id="112" value="no" style="text;html=1;strokeColor=none;fillColor=none;align=center;verticalAlign=middle;whiteSpace=wrap;rounded=0;" parent="1" vertex="1">
                    <mxGeometry x="970" y="437.5" width="60" height="30" as="geometry"/>
                </mxCell>
                <mxCell id="125" value="yes" style="text;html=1;strokeColor=none;fillColor=none;align=center;verticalAlign=middle;whiteSpace=wrap;rounded=0;" parent="1" vertex="1">
                    <mxGeometry x="694.5" y="567.5" width="60" height="30" as="geometry"/>
                </mxCell>
                <mxCell id="126" value="&quot;Error&quot;&lt;br&gt;exit()" style="shape=parallelogram;perimeter=parallelogramPerimeter;whiteSpace=wrap;html=1;fixedSize=1;" parent="1" vertex="1">
                    <mxGeometry x="634.5" y="627.5" width="120" height="60" as="geometry"/>
                </mxCell>
                <mxCell id="127" value="no" style="text;html=1;strokeColor=none;fillColor=none;align=center;verticalAlign=middle;whiteSpace=wrap;rounded=0;" parent="1" vertex="1">
                    <mxGeometry x="785" y="437.5" width="60" height="30" as="geometry"/>
                </mxCell>
                <mxCell id="128" value="" style="endArrow=classic;html=1;" parent="1" edge="1">
                    <mxGeometry width="50" height="50" relative="1" as="geometry">
                        <mxPoint x="1140" y="477" as="sourcePoint"/>
                        <mxPoint x="1220" y="477" as="targetPoint"/>
                    </mxGeometry>
                </mxCell>
                <mxCell id="130" style="edgeStyle=none;html=1;exitX=0.5;exitY=1;exitDx=0;exitDy=0;entryX=0.5;entryY=0;entryDx=0;entryDy=0;" parent="1" source="129" target="132" edge="1">
                    <mxGeometry relative="1" as="geometry">
                        <mxPoint x="1100" y="587.5" as="targetPoint"/>
                    </mxGeometry>
                </mxCell>
                <mxCell id="129" value="already in&amp;nbsp;&lt;br&gt;stack a?" style="rhombus;whiteSpace=wrap;html=1;" parent="1" vertex="1">
                    <mxGeometry x="1060" y="437.5" width="80" height="80" as="geometry"/>
                </mxCell>
                <mxCell id="131" value="yes" style="text;html=1;strokeColor=none;fillColor=none;align=center;verticalAlign=middle;whiteSpace=wrap;rounded=0;" parent="1" vertex="1">
                    <mxGeometry x="1095" y="567.5" width="60" height="30" as="geometry"/>
                </mxCell>
                <mxCell id="132" value="&quot;Error&quot;&lt;br&gt;exit()" style="shape=parallelogram;perimeter=parallelogramPerimeter;whiteSpace=wrap;html=1;fixedSize=1;" parent="1" vertex="1">
                    <mxGeometry x="1040" y="627.5" width="120" height="60" as="geometry"/>
                </mxCell>
                <mxCell id="134" value="no" style="text;html=1;strokeColor=none;fillColor=none;align=center;verticalAlign=middle;whiteSpace=wrap;rounded=0;" parent="1" vertex="1">
                    <mxGeometry x="1140" y="437.5" width="60" height="30" as="geometry"/>
                </mxCell>
                <mxCell id="135" value="all inputs are&amp;nbsp;&lt;br&gt;valid" style="shape=parallelogram;perimeter=parallelogramPerimeter;whiteSpace=wrap;html=1;fixedSize=1;" parent="1" vertex="1">
                    <mxGeometry x="1410" y="447.5" width="120" height="60" as="geometry"/>
                </mxCell>
                <mxCell id="138" value="loop over an array of strings" style="text;html=1;strokeColor=none;fillColor=none;align=center;verticalAlign=middle;whiteSpace=wrap;rounded=0;" parent="1" vertex="1">
                    <mxGeometry x="318.5" y="370" width="150" height="40" as="geometry"/>
                </mxCell>
                <mxCell id="140" value="loop over a string" style="text;html=1;strokeColor=none;fillColor=none;align=center;verticalAlign=middle;whiteSpace=wrap;rounded=0;" parent="1" vertex="1">
                    <mxGeometry x="619.5" y="360" width="150" height="40" as="geometry"/>
                </mxCell>
            </root>
        </mxGraphModel>
    </diagram>
</mxfile>